#!OML:ASF Y:\EmotionMaleHayes\Project 1\Capture day 1\Session 1\Male1.ASF
:FULLY-SPECIFIED
:DEGREES
444
root -2.11822 17.5447 -1.46776 -193.246 44.6321 -211.574
lowerback 24.1071 2.82243 -0.827726
upperback 8.84099 4.90574 4.55377
thorax -4.12116 2.81317 4.04107
lowerneck -16.5114 -11.0523 -3.80566
upperneck 6.77135 -13.9109 0.0689454
head 4.91036 -6.91676 -0.645486
rclavicle 1.08139e-013 3.18055e-015
rhumerus 32.1506 50.8256 -71.4041
rradius 44.4013
rwrist -1.7376
rhand -16.4956 -23.3336
rfingers 7.12502
rthumb 9.72199 -53.0892
lclavicle 1.08139e-013 3.18055e-015
lhumerus -19.3788 -4.25635 22.02
lradius 25.3746
lwrist 3.94075
lhand -22.2884 -11.2802
lfingers 7.12502
lthumb 4.13026 18.6595
rfemur -22.508 -14.4695 6.05236
rtibia 47.9236
rfoot -7.78953 -8.91158
rtoes 22.632
lfemur -30.4253 50.0974 -2.38261
ltibia 80.8481
lfoot -14.8839 13.0776
ltoes 1.8316
445
root -1.92729 17.6846 -1.54776 -193.959 44.5078 -212.416
lowerback 24.4881 3.05913 -0.90054
upperback 8.94578 5.19037 4.34245
thorax -4.20233 2.95619 3.75684
lowerneck -16.3154 -11.2462 -3.74657
upperneck 6.46066 -14.2222 0.317776
head 4.80037 -7.05574 -0.586893
rclavicle 9.54166e-015 6.04305e-014
rhumerus 34.9564 51.9967 -70.7531
rradius 46.2501
rwrist -0.0751128
rhand -15.8709 -22.6317
rfingers 7.12502
rthumb 10.3247 -52.3582
lclavicle 9.54166e-015 6.04305e-014
lhumerus -20.6726 -6.78199 20.3365
lradius 25.837
lwrist 4.96227
lhand -20.7082 -11.0095
lfingers 7.12502
lthumb 5.65609 18.8951
rfemur -22.6993 -16.1573 4.86193
rtibia 48.8544
rfoot -4.57166 -8.73181
rtoes 24.8127
lfemur -31.162 51.056 -3.43654
ltibia 80.3478
lfoot -15.2626 14.0238
ltoes 1.2961
446
root -1.73109 17.8123 -1.63735 -194.664 44.2995 -213.277
lowerback 24.6743 3.19206 -1.00335
upperback 9.09712 5.32998 4.06111
thorax -4.11854 3.02991 3.46599
lowerneck -16.0715 -11.3813 -3.86236
upperneck 6.226 -14.4564 0.868623
head 4.74264 -7.14308 -0.408636
rclavicle -5.725e-014 -1.59028e-014
rhumerus 40.3 54.0728 -66.4995
rradius 48.5686
rwrist -0.743528
rhand -15.4632 -21.8389
rfingers 7.12502
rthumb 10.7179 -51.5455
lclavicle -5.725e-014 -1.59028e-014
lhumerus -22.1959 -8.89119 18.616
lradius 26.3167
lwrist 5.69411
lhand -19.6468 -11.2121
lfingers 7.12502
lthumb 6.68074 18.6625
rfemur -22.8195 -18.0049 3.63124
rtibia 49.7297
rfoot -1.64546 -8.47931
rtoes 26.2043
lfemur -31.6614 51.6692 -4.38589
ltibia 79.8427
lfoot -15.6664 14.7976
ltoes 0.970747
447
root -1.53168 17.9277 -1.73088 -195.207 44.2563 -213.953
lowerback 24.6844 3.31627 -0.973501
upperback 9.27565 5.48696 3.78545
thorax -3.90882 3.11362 3.11283
lowerneck -16.2103 -11.3175 -3.11117
upperneck 6.29466 -14.4874 0.510662
head 4.70578 -7.16456 -0.629365
rclavicle -4.45278e-014 -1.7175e-013
rhumerus 45.1003 55.2308 -63.1178
rradius 50.8226
rwrist -0.817339
rhand -16.4183 -21.7015
rfingers 7.12502
rthumb 9.79661 -51.4536
lclavicle -4.45278e-014 -1.7175e-013
lhumerus -23.7594 -10.3107 16.914
lradius 26.6849
lwrist 5.85435
lhand -19.1888 -12.0522
lfingers 7.12502
lthumb 7.12295 17.8079
rfemur -23.2771 -19.6973 2.70708
rtibia 50.9571
rfoot 0.164823 -7.84907
rtoes 26.1484
lfemur -31.9335 52.1201 -4.90394
ltibia 79.4218
lfoot -15.3857 14.8377
ltoes 0.297779
448
root -1.3327 18.0347 -1.81969 -195.931 44.4673 -214.757
lowerback 24.9375 3.59626 -1.00957
upperback 9.38582 5.8196 3.48883
thorax -3.90451 3.27934 2.70758
lowerneck -16.3255 -11.5137 -3.08494
upperneck 6.64214 -14.7971 0.819686
head 4.85929 -7.2936 -0.591866
rclavicle -4.13472e-014 -1.33583e-013
rhumerus 44.9157 55.114 -65.4308
rradius 53.6065
rwrist 1.34562
rhand -15.2393 -20.6661
rfingers 7.12502
rthumb 10.9339 -50.3614
lclavicle -4.13472e-014 -1.33583e-013
lhumerus -25.3513 -11.9676 15.4701
lradius 27.1632
lwrist 5.976
lhand -19.6551 -12.4734
lfingers 7.12502
lthumb 6.67282 17.4015
rfemur -23.8364 -20.9543 1.8922
rtibia 52.1041
rfoot 0.701213 -7.09123
rtoes 25.072
lfemur -31.7501 52.554 -5.00877
ltibia 79.0602
lfoot -14.9586 14.8875
ltoes -0.729145
449
root -1.13636 18.1279 -1.89855 -196.906 44.726 -215.852
lowerback 25.3486 3.94645 -1.52177
upperback 9.45411 6.12517 3.15354
thorax -4.05404 3.42467 2.52253
lowerneck -15.8071 -11.635 -3.05526
upperneck 6.34842 -15.0686 1.51901
head 4.74502 -7.39173 -0.37568
rclavicle 6.36111e-014 1.55847e-013
rhumerus 48.8523 56.2799 -62.8131
rradius 56.0634
rwrist 0.280539
rhand -14.543 -20.4798
rfingers 7.12502
rthumb 11.6055 -50.1384
lclavicle 6.36111e-014 1.55847e-013
lhumerus -27.1943 -13.437 14.0164
lradius 27.6058
lwrist 6.57688
lhand -20.5394 -13.2377
lfingers 7.12502
lthumb 5.81904 16.6624
rfemur -24.2357 -21.8406 1.04384
rtibia 52.7286
rfoot 0.25564 -6.63781
rtoes 23.1656
lfemur -31.244 52.7833 -5.01218
ltibia 78.7534
lfoot -14.8575 14.6885
ltoes -0.853911
